<svg width="64" height="50" viewBox="0 0 64 50" fill="none" xmlns="http://www.w3.org/2000/svg">
<rect width="64" height="50" fill="#0E1E41"/>
<path d="M15.0145 18.0757C14.863 16.8409 15.1146 15.7862 15.6348 14.9373C16.012 14.3171 16.5294 13.814 17.1353 13.4339C17.7327 13.0595 18.413 12.8051 19.1275 12.685C20.2594 12.4935 21.4885 12.6307 22.5975 13.1338C22.9919 12.3792 23.5521 11.7361 24.2781 11.2559C25.1156 10.7043 26.1646 10.3784 27.4251 10.3784C28.7913 10.3784 30.0832 10.9587 31.0293 11.8933C31.7296 12.5879 32.2384 13.4796 32.4442 14.4743C33.2588 14.0513 34.0191 13.8569 34.705 13.8598C35.2681 13.8598 35.7826 13.9941 36.2342 14.2371C36.6829 14.4829 37.066 14.8344 37.3718 15.2832C37.8863 16.0321 38.1835 17.0525 38.2178 18.2501C38.3636 18.4616 38.4494 18.716 38.4722 19.0132C38.4808 19.1304 38.4779 19.2505 38.4694 19.3762C38.4636 19.4191 38.4579 19.462 38.4465 19.4991L36.38 28.5455C35.6283 29.1829 34.8365 29.7374 34.0191 30.229L37.2374 19.2333C37.2432 19.1819 37.2432 19.1333 37.2374 19.0961C37.2317 19.0418 37.226 18.9989 37.2117 18.9732C37.1889 18.956 37.1688 18.9332 37.1488 18.9103C37.1031 18.8903 37.0345 18.876 36.9459 18.8674C36.8716 18.8617 36.7887 18.8617 36.7001 18.8646C36.6744 18.8674 36.6515 18.8703 36.6258 18.8703H15.9949C15.9663 18.876 15.9492 18.8846 15.9434 18.8932C15.892 19.0075 15.8863 19.2047 15.9091 19.4505L19.0761 33.0587C19.682 33.3331 19.3705 33.2473 20.0422 33.2931C21.3798 33.3845 22.8061 33.0558 24.1581 32.3813C27.1507 30.8836 29.7574 27.7052 30.2433 23.595C29.6602 23.312 29.2601 22.7175 29.2601 22.0258C29.2658 21.0683 30.0432 20.2851 31.0065 20.2851C31.9697 20.2851 32.75 21.0654 32.75 22.0287C32.75 22.829 32.2098 23.5035 31.4752 23.7065C30.9464 28.274 28.0453 31.8153 24.7154 33.4817C23.1663 34.2563 21.517 34.6307 19.965 34.5221C19.4505 34.485 19.9107 34.6393 19.4248 34.4964C20.1765 37.3232 20.8111 37.3118 23.1291 37.2689C23.5607 37.2632 24.0352 37.2517 24.3639 37.2517H24.5039C24.5239 37.2889 24.5411 37.3261 24.5611 37.3632C24.7783 37.7691 25.1184 38.1435 25.5358 38.4865H24.3639C23.7951 38.4865 23.4549 38.4922 23.1462 38.4979C19.8535 38.5608 19.1247 38.5723 18.0614 34.1162V34.1134H18.0586L18.0071 33.8904C17.5269 33.6132 17.0725 33.2673 16.6523 32.85C14.32 30.5263 13.1481 25.9616 14.7144 18.5302C14.7458 18.3758 14.8344 18.2443 14.9516 18.1586C14.9716 18.1272 14.9916 18.1014 15.0145 18.0757ZM17.5727 32.0297L15.3404 22.4488C14.8716 27.2507 15.8463 30.3119 17.5183 31.9811C17.5384 31.9983 17.5555 32.0154 17.5727 32.0297ZM36.9345 17.627C36.843 16.961 36.6458 16.4008 36.3514 15.972C36.1542 15.6862 35.9169 15.4633 35.6425 15.3146C35.371 15.166 35.0537 15.0888 34.6993 15.0888C34.0191 15.0888 33.1987 15.3747 32.2698 16.012C32.1698 16.0806 32.0469 16.1207 31.9154 16.1207C31.5781 16.1149 31.3066 15.8406 31.3066 15.5033C31.3037 15.4861 31.3037 15.4718 31.3037 15.4547C31.3037 14.4086 30.8578 13.4568 30.1576 12.7651C29.4401 12.0534 28.4569 11.6103 27.4251 11.6103C26.4161 11.6103 25.5929 11.859 24.9527 12.2792C24.261 12.7336 23.7693 13.4025 23.4721 14.1885C23.4578 14.2285 23.4406 14.2657 23.4178 14.3C23.2406 14.5915 22.8604 14.683 22.5717 14.5029C21.5771 13.8941 20.4052 13.7083 19.3333 13.8941C18.776 13.9884 18.2501 14.1828 17.7927 14.4686C17.3468 14.7516 16.9638 15.1203 16.6866 15.5719C16.3465 16.1292 16.1664 16.8181 16.215 17.6298H36.6229C36.7287 17.627 36.8316 17.6241 36.9345 17.627ZM39.6298 25.0784C39.847 24.8498 40.1529 24.7126 40.5587 24.6783L44.0544 25.1785C44.8147 25.2871 45.555 25.5186 45.6064 26.4561C45.6236 26.7734 45.5493 27.1364 45.5007 27.5937L45.4749 27.8424C45.3749 28.7627 45.1177 28.657 44.3631 29.0257C46.2495 32.1183 48.4247 35.3882 49.0964 39.0553C49.245 39.8099 48.7619 40.3044 47.8044 40.6073L46.0923 40.9275C46.261 38.9353 45.735 36.8402 44.6175 34.6593C44.9233 37.146 45.2291 39.5698 44.8233 41.0018L43.0626 41.3333C42.8082 40.5302 42.5995 39.9099 42.2394 39.6527L41.8307 41.1904L38.8667 41.0446C39.9328 39.4154 40.5873 37.6576 40.7617 35.7454C39.8327 37.8091 38.8009 39.3383 37.6433 40.2529C37.1003 40.8103 36.6258 40.9246 36.2199 40.5673C35.9312 40.3129 35.977 40.1557 36.037 39.7842C36.1142 39.304 36.3057 38.8095 36.5715 38.315C35.9741 38.9867 35.5968 39.1496 35.2595 39.5069C34.3077 40.5273 32.6614 40.3701 32.3984 38.9553C32.2298 38.0492 32.8329 37.7577 33.4445 37.1174L34.5078 36.0055C33.3159 36.7515 32.1212 37.4661 30.9178 37.9149C29.5345 38.4322 29.5287 38.3779 28.2597 37.7205C26.5504 36.8373 25.2785 35.8283 27.6566 35.2195C32.0354 33.779 36.3057 32.084 39.6698 28.2682C39.3154 28.0539 39.121 27.7766 39.061 27.4508C38.9667 26.9649 39.2868 25.4386 39.6298 25.0784ZM44.3745 9.3466L41.7792 22.4946C41.5391 24.6954 44.1001 24.8955 44.506 22.7318L47.0441 9.56382C46.9841 7.72882 44.9061 7.32581 44.3745 9.3466Z" fill="white"/>
</svg>
