<svg width="64" height="50" viewBox="0 0 64 50" fill="none" xmlns="http://www.w3.org/2000/svg">
<rect width="64" height="50" fill="#0E1E41"/>
<path d="M49.8715 27.3814H42.7134L44.4677 33.9254H49.8715V27.3814ZM12.8571 21.2797C10.9884 20.311 9.26849 19.0525 9.02061 16.1123C8.86044 14.2055 9.64222 12.2072 11.0723 10.6131C11.2363 18.4348 20.7015 16.7148 17.3075 9C21.2049 9.9839 22.8333 13.4199 22.1088 17.1686C21.7693 18.942 21.6359 19.9106 21.7846 20.7648C21.882 21.2605 22.0503 21.7396 22.2842 22.1873C22.5969 22.8394 23.2452 24.0941 24.191 25.9284L24.5227 25.8788C24.5785 25.873 24.6348 25.873 24.6905 25.8788H30.6473L31.6617 22.4161C31.7082 22.2596 31.8037 22.1222 31.9342 22.0241C32.0646 21.9259 32.2231 21.8722 32.3863 21.8708H33.9346V18.2288H30.552C30.2223 18.2185 29.8985 18.1383 29.6021 17.9937C29.3056 17.8491 29.0432 17.6433 28.8321 17.3898C28.3699 16.8713 28.1088 16.2043 28.096 15.5097C28.111 14.8168 28.3719 14.1518 28.8321 13.6335C29.0445 13.383 29.3076 13.1804 29.6041 13.039C29.9005 12.8977 30.2236 12.8208 30.552 12.8136H42.1795C42.5114 12.8208 42.8379 12.8995 43.1367 13.0443C43.4354 13.1891 43.6995 13.3965 43.9109 13.6525L43.9452 13.6907C44.3838 14.204 44.6305 14.8538 44.6431 15.5288C44.6242 16.2164 44.3636 16.8753 43.9071 17.3898C43.6949 17.644 43.4312 17.8503 43.1334 17.9949C42.8356 18.1396 42.5105 18.2193 42.1795 18.2288H38.7969V21.8555H40.6541C40.827 21.8567 40.9944 21.9165 41.1289 22.0253C41.2633 22.1341 41.3568 22.2854 41.3939 22.4542L42.3092 25.8636H49.8753V24.5364C49.8762 24.4177 49.9005 24.3003 49.947 24.191C49.9935 24.0816 50.0611 23.9826 50.1461 23.8996L50.188 23.8729C50.381 23.7069 50.6275 23.6161 50.8821 23.6174H54.8444C54.9852 23.6136 55.1254 23.6383 55.2565 23.6901C55.3876 23.7418 55.5068 23.8196 55.6071 23.9187C55.692 24.0017 55.7596 24.1007 55.8061 24.21C55.8526 24.3193 55.877 24.4367 55.8778 24.5555V37.0297C55.877 37.1484 55.8526 37.2659 55.8061 37.3752C55.7596 37.4845 55.692 37.5835 55.6071 37.6665L55.5575 37.7085C55.366 37.8774 55.1188 37.9698 54.8634 37.9678H50.8859C50.7451 37.9708 50.6052 37.9456 50.4742 37.8939C50.3433 37.8422 50.2239 37.7649 50.1232 37.6665C50.0382 37.5835 49.9706 37.4845 49.9241 37.3752C49.8777 37.2659 49.8533 37.1484 49.8524 37.0297V35.4432H44.5668C44.3205 36.4352 43.8572 37.3602 43.2103 38.1516C42.5633 38.9429 41.7489 39.5809 40.8257 40.0195C39.4799 40.6778 37.9992 41.0134 36.5011 40.9996C34.998 41.0081 33.5117 40.6825 32.1499 40.0462C31.1878 39.6195 30.3318 38.9857 29.6429 38.1901C28.954 37.3944 28.4493 36.4565 28.1647 35.4432H28.0693C27.4232 35.4253 26.7887 35.618 26.2617 35.9924C25.878 36.3404 25.642 36.8221 25.602 37.3386V39.9814C25.602 40.1837 25.5216 40.3777 25.3786 40.5207C25.2355 40.6637 25.0415 40.7441 24.8393 40.7441H16.766C16.5637 40.7441 16.3697 40.6637 16.2266 40.5207C16.0836 40.3777 16.0032 40.1837 16.0032 39.9814V34.2229C15.9995 34.181 15.9995 34.1389 16.0032 34.097C16.3846 31.786 17.2732 29.9021 18.6727 28.4987C18.8482 28.3233 19.0312 28.1593 19.2219 27.9992C18.3028 26.1572 17.9825 25.486 17.6164 24.8377C17.3612 24.3246 17.0252 23.8559 16.621 23.4496C15.9727 22.8318 15.0575 22.4275 12.8418 21.2949V21.272L12.8571 21.2797ZM28.2791 33.9254L30.1859 27.3814H24.702C22.5626 27.6674 20.938 28.4148 19.771 29.5703C18.6041 30.7259 17.8643 32.3161 17.5249 34.2839V39.2415H24.0689V37.3348C24.065 37.2916 24.065 37.2482 24.0689 37.2051C24.1456 36.2969 24.5772 35.4556 25.2702 34.8636C26.059 34.2653 27.0261 33.9496 28.016 33.9674L28.2791 33.9254ZM32.9545 23.3733L29.6329 34.6958C29.6327 34.7761 29.6199 34.8559 29.5948 34.9322C29.8099 35.7613 30.2103 36.5308 30.7658 37.1828C31.3214 37.8347 32.0175 38.3522 32.802 38.6962C33.9602 39.236 35.2233 39.5133 36.5011 39.5085C37.7622 39.5202 39.0088 39.2396 40.1431 38.6886C40.9056 38.3291 41.5742 37.7976 42.0963 37.1359C42.6184 36.4741 42.9798 35.7002 43.152 34.875L40.0668 23.3733H32.9545ZM54.6499 24.6356H51.0842V36.9115H54.6499V24.6356Z" fill="white"/>
</svg>
