<svg width="64" height="50" viewBox="0 0 64 50" fill="none" xmlns="http://www.w3.org/2000/svg">
<rect width="64" height="50" fill="#0E1E41"/>
<path fill-rule="evenodd" clip-rule="evenodd" d="M21.6138 11.5673C21.101 11.1249 20.5037 10.7912 19.8581 10.5864C19.2125 10.3815 18.532 10.3098 17.8579 10.3756C21.9373 13.7032 17.1061 18.0011 14.4225 12.998C13.3211 15.4719 14.4691 17.7505 16.7536 18.9219C17.8317 19.4755 18.3999 19.796 18.7933 20.2418C19.015 20.4971 19.1976 20.7838 19.3352 21.0927L20.3522 23.4995H16.0717C15.9827 23.4999 15.8946 23.5178 15.8126 23.5524C15.7305 23.5869 15.6561 23.6372 15.5935 23.7006C15.531 23.7639 15.4816 23.839 15.4481 23.9215C15.4147 24.004 15.3979 24.0923 15.3986 24.1813V36.0989C15.4025 37.3976 15.9201 38.642 16.8384 39.5603C17.7567 40.4786 19.001 40.9962 20.2997 41H42.203C43.5017 40.9962 44.746 40.4786 45.6643 39.5603C46.5826 38.642 47.1002 37.3976 47.1041 36.0989V24.1813C47.1041 24.0021 47.0329 23.8301 46.9061 23.7033C46.7793 23.5766 46.6074 23.5053 46.4281 23.5053H39.9011L43.7095 17.0949L40.9792 15.5214L36.2063 23.5053H33.1701V22.672C33.1701 22.635 33.1578 22.5992 33.1352 22.57C32.9895 22.3952 32.8787 22.2786 32.7855 22.1591C32.5699 21.9086 32.4591 21.7833 32.4591 21.7017C32.4591 21.6201 32.564 21.4831 32.7768 21.2209C32.8642 21.1131 32.9691 20.9849 33.0914 20.8246C33.1158 20.795 33.1292 20.758 33.1293 20.7197V19.796C33.1293 19.7535 33.1124 19.7128 33.0824 19.6827C33.0523 19.6526 33.0116 19.6358 32.9691 19.6358H31.5559L31.5821 13.1991L32.4329 11.7101C32.5203 11.5757 32.5668 11.4188 32.567 11.2585V9.80157C32.5609 9.58335 32.4685 9.37646 32.3101 9.22626C32.1517 9.07605 31.9402 8.99478 31.7219 9.00026H29.7347C29.6264 9.00178 29.5195 9.02462 29.42 9.06747C29.3205 9.11032 29.2305 9.17235 29.155 9.25C29.0795 9.32766 29.0201 9.41943 28.98 9.52007C28.94 9.6207 28.9202 9.72824 28.9217 9.83653L28.9451 11.4508C28.947 11.6171 28.9999 11.7788 29.0966 11.9141L29.8921 13.0534L29.8658 19.6474H28.1933C28.172 19.6474 28.1509 19.6517 28.1313 19.6599C28.1116 19.6681 28.0938 19.6802 28.0789 19.6954C28.064 19.7106 28.0523 19.7286 28.0444 19.7484C28.0365 19.7681 28.0326 19.7893 28.033 19.8106V20.7139C28.0332 20.7527 28.0478 20.79 28.0738 20.8188C28.2108 20.9703 28.3273 21.1102 28.4293 21.2034C28.7207 21.5152 28.8606 21.6667 28.8635 21.7862C28.8664 21.9056 28.744 22.0368 28.5167 22.3252C28.4031 22.468 28.2632 22.6458 28.0971 22.8672C28.0729 22.8955 28.0604 22.932 28.0622 22.9692V23.5112H24.2538L22.6512 19.7494C22.4871 19.4002 22.378 19.0276 22.3277 18.6451C22.3063 18.2788 22.3338 17.9114 22.4093 17.5524C22.7969 15.2854 23.5749 13.4002 21.6138 11.5732V11.5673ZM16.7477 27.6313H45.7608V24.8544H16.7477V27.6313ZM45.7608 28.9804H41.7193V31.2503C41.7193 31.4933 41.6236 31.7265 41.4529 31.8994C41.2822 32.0723 41.0502 32.1709 40.8073 32.174H37.5613C37.3165 32.1732 37.082 32.0757 36.909 31.9026C36.7359 31.7295 36.6384 31.495 36.6376 31.2503V28.9804H26.1857V31.2503C26.1849 31.495 26.0873 31.7295 25.9143 31.9026C25.7412 32.0757 25.5067 32.1732 25.262 32.174H22.0276C21.7824 32.174 21.5471 32.0768 21.3734 31.9036C21.1997 31.7305 21.1018 31.4956 21.101 31.2503V28.9804H16.7477V36.0989C16.7508 37.0403 17.1259 37.9423 17.7913 38.6082C18.4567 39.2741 19.3583 39.65 20.2997 39.6538H42.203C43.1454 39.6515 44.0485 39.2763 44.7152 38.6102C45.3818 37.9442 45.7577 37.0413 45.7608 36.0989V28.9804ZM35.9383 14.487C36.4016 14.1429 36.9255 13.8888 37.4826 13.7382C37.8619 13.6234 38.2604 13.5862 38.6544 13.6287C39.0484 13.6713 39.4297 13.7927 39.7758 13.9858L45.7142 17.4096L45.3558 18.0332L47.614 19.3473L49.8052 15.5593L47.5499 14.2452L47.142 14.9328L41.2385 11.5295C40.8974 11.3082 40.5149 11.1584 40.1142 11.0893C39.7135 11.0202 39.303 11.0331 38.9075 11.1274C37.672 11.4595 36.6784 12.5843 35.9266 14.487H35.9383Z" fill="white"/>
</svg>
