<svg width="64" height="50" viewBox="0 0 64 50" fill="none" xmlns="http://www.w3.org/2000/svg">
<rect width="64" height="50" fill="#0E1E41"/>
<path fill-rule="evenodd" clip-rule="evenodd" d="M39.1603 20.5309V22.4315C39.1603 25.7389 40.4555 27.3554 43.8238 27.7612V27.9439C43.8103 28.0284 43.8001 28.113 43.8001 28.2009V32.0156V37.0139C40.2459 37.0206 38.3926 37.0511 34.8958 37.0815C31.8759 37.1086 28.8526 37.1356 24.3717 37.139V33.4968H32.5759C33.8035 33.4968 34.8045 32.4924 34.8045 31.2682V12.2286C34.8045 11.0044 33.8001 10 32.5759 10H13.2286C12.0044 10 11 11.0044 11 12.2286V31.2682C11 32.4958 12.0044 33.4968 13.2286 33.4968H21.514V38.5695C21.514 39.3575 22.1532 40 22.9445 40C26.9959 40 30.956 39.9662 34.9195 39.929C38.2506 39.8985 39.9415 39.8715 45.2306 39.8715C46.0186 39.8715 46.6611 39.2323 46.6611 38.441V32.0156V28.2009C46.6611 28.1028 46.651 28.0081 46.6307 27.9134V27.7308C49.9652 27.4095 51.2942 25.4481 51.2942 22.2455V20.5309H39.1603ZM21.7136 26.2225H24.091V24.6939C24.091 24.4674 23.9997 24.2645 23.8509 24.1157C23.7021 23.9669 23.4992 23.8755 23.2726 23.8755H22.5218C22.2986 23.8755 22.0991 23.9669 21.9503 24.1123C21.8049 24.2577 21.7136 24.4606 21.7136 24.6838V26.2225ZM24.2026 26.9428H21.602C21.4363 26.9428 21.2841 26.8752 21.1725 26.7636C21.0609 26.652 20.9932 26.5032 20.9932 26.3341V24.6838C20.9932 24.2645 21.1657 23.8823 21.443 23.605C21.7203 23.3277 22.1025 23.1552 22.5218 23.1552H23.2726C23.6953 23.1552 24.0808 23.3277 24.3581 23.605C24.6354 23.8823 24.8079 24.2678 24.8079 24.6906V26.3307C24.8079 26.4998 24.7403 26.6486 24.6287 26.7602C24.5238 26.8752 24.3717 26.9428 24.2026 26.9428ZM19.2246 17.3216H20.5468C20.7362 17.3216 20.9087 17.3994 21.0338 17.5245C21.1589 17.6496 21.2367 17.8221 21.2367 18.0149V20.9165C21.2367 21.1059 21.1589 21.2783 21.0338 21.4035C20.9087 21.5286 20.7362 21.6064 20.5468 21.6064H19.2246C19.0352 21.6064 18.8627 21.5286 18.7376 21.4035C18.7274 21.3933 18.7207 21.3832 18.7105 21.373C18.5989 21.2513 18.5313 21.0889 18.5313 20.9131V18.0149C18.5313 17.8255 18.6091 17.653 18.7342 17.5279C18.8627 17.3994 19.0352 17.3216 19.2246 17.3216ZM20.5198 18.0419H19.2516V20.886H20.5198V18.0419ZM25.2577 17.3216H26.58C26.7694 17.3216 26.9418 17.3994 27.067 17.5245C27.1921 17.6496 27.2699 17.8221 27.2699 18.0149V20.9165C27.2699 21.1059 27.1921 21.2783 27.067 21.4035C26.9418 21.5286 26.7694 21.6064 26.58 21.6064H25.2577C25.0683 21.6064 24.8958 21.5286 24.7707 21.4035C24.6456 21.2783 24.5678 21.1059 24.5678 20.9165V18.0149C24.5678 17.8255 24.6456 17.653 24.7707 17.5245C24.8925 17.3994 25.0649 17.3216 25.2577 17.3216ZM26.5529 18.0419H25.2847V20.886H26.5529V18.0419ZM13.834 29.5942C14.3683 29.5942 14.8011 30.0271 14.8011 30.5614C14.8011 31.0957 14.3683 31.5286 13.834 31.5286C13.2996 31.5286 12.8668 31.0957 12.8668 30.5614C12.8634 30.0271 13.2996 29.5942 13.834 29.5942ZM32.0923 11.8498C32.6266 11.8498 33.0595 12.2827 33.0595 12.817C33.0595 13.3514 32.6266 13.7842 32.0923 13.7842C31.558 13.7842 31.1251 13.3514 31.1251 12.817C31.1251 12.2827 31.558 11.8498 32.0923 11.8498ZM22.8228 13.7978C27.2124 13.7978 30.77 17.3554 30.77 21.745C30.77 26.1346 27.2124 29.6923 22.8228 29.6923C18.4332 29.6923 14.8755 26.1346 14.8755 21.745C14.8755 17.3588 18.4332 13.7978 22.8228 13.7978ZM38.5482 18.0724H40.9222V13.2973C40.9222 12.6209 41.4768 12.0663 42.1532 12.0663C42.8296 12.0663 43.3842 12.6209 43.3842 13.2973V18.0724H46.9993V13.2973C46.9993 12.6209 47.5539 12.0663 48.2303 12.0663C48.9067 12.0663 49.4613 12.6209 49.4613 13.2973V18.0724H51.771C52.2005 18.0724 52.5489 18.4241 52.5489 18.8502V19.7531C52.5489 20.1826 52.1972 20.5309 51.771 20.5309H38.5482C38.1187 20.5309 37.7704 20.1792 37.7704 19.7531V18.8502C37.7704 18.4241 38.1187 18.0724 38.5482 18.0724ZM41.9435 21.2344H48.5076V22.2083H41.9435V21.2344Z" fill="white"/>
</svg>
