<svg width="64" height="49" viewBox="0 0 64 49" fill="none" xmlns="http://www.w3.org/2000/svg">
<rect width="64" height="49" fill="#0E1E41"/>
<path fill-rule="evenodd" clip-rule="evenodd" d="M50.1233 41C49.5946 40.0604 49.4043 39.4713 47.6521 39.5106H47.6188C47.8847 38.0393 48.0176 36.6345 47.9149 35.3475C47.8061 34.0001 47.4376 32.7766 46.6944 31.7433C46.6551 31.6859 46.5917 31.6436 46.5161 31.6316C46.3711 31.6074 46.2382 31.7071 46.214 31.8491C45.9935 33.2388 45.9663 34.6527 45.9391 36.0393L45.9331 36.3052C45.927 36.6708 45.9331 36.9698 45.9391 37.2357C45.9572 37.9517 45.9693 38.4018 45.6279 39.1632C45.3439 37.3596 45.1566 35.5469 45.0781 33.7131C44.9935 31.7524 45.0328 29.7675 45.1989 27.7434C45.211 27.5984 45.1022 27.4715 44.9572 27.4594C44.8243 27.4504 44.7065 27.538 44.6793 27.6649C43.9512 30.26 43.5283 32.9216 43.3953 35.6134C43.3953 35.6224 43.3953 35.6345 43.3953 35.6436L43.4346 36.6919C42.8908 34.8762 42.4316 33.0394 42.2322 31.2207C41.9694 28.7917 42.1748 26.3779 43.2896 24.0577C43.353 23.9277 43.2956 23.7706 43.1657 23.7072C43.0539 23.6528 42.924 23.6861 42.8485 23.7767C41.7095 25.1694 40.9664 27.0546 40.628 29.4322C40.2927 31.7856 40.3501 34.6285 40.8032 37.9638C40.8032 37.9698 40.8062 37.9759 40.8062 37.9789L41.1114 39.5106H40.3652L39.1748 39.5076L39.5464 37.6496C39.5464 37.6436 39.5495 37.6375 39.5495 37.6345C40.0933 33.6466 40.1597 30.2539 39.7579 27.4443C39.3531 24.6075 38.4679 22.3628 37.1114 20.7042C37.0359 20.6136 36.906 20.5804 36.7942 20.6347C36.6643 20.6982 36.6069 20.8553 36.6703 20.9852C38.0087 23.7706 38.2564 26.6649 37.9392 29.5802C37.6885 31.8914 37.0842 34.2176 36.3833 36.5197L36.4438 34.8641C36.4438 34.8551 36.4438 34.843 36.4438 34.8339C36.3622 33.1482 36.187 31.5137 35.9272 29.9307C35.6673 28.3506 35.326 26.8189 34.909 25.3356C34.8819 25.2087 34.764 25.1211 34.6311 25.1301C34.4861 25.1422 34.3773 25.2691 34.3894 25.4141C34.5888 27.8401 34.6341 30.2177 34.5314 32.5621C34.4317 34.8853 34.0329 37.1813 33.894 39.4955L31.4378 39.4925V24.9338L32.5163 22.7827H34.3743V19.6408H26.0874V22.7858H27.9454L29.0239 24.9368V39.4894L26.8457 39.4925C26.7067 37.1783 26.308 34.8853 26.2083 32.559C26.1086 30.2116 26.1509 27.834 26.3503 25.4111C26.3623 25.2661 26.2536 25.1392 26.1086 25.1271C25.9756 25.1181 25.8578 25.2057 25.8306 25.3326C25.4137 26.8189 25.0723 28.3476 24.8125 29.9277C24.5527 31.5107 24.3775 33.1421 24.2959 34.8309C24.2959 34.84 24.2959 34.8521 24.2959 34.8611L24.3563 36.5167C23.6554 34.2146 23.0512 31.8884 22.8005 29.5772C22.4832 26.6618 22.734 23.7676 24.0693 20.9822C24.1328 20.8523 24.0754 20.6952 23.9455 20.6317C23.8337 20.5773 23.7038 20.6106 23.6282 20.7012C22.2718 22.3628 21.3866 24.6075 20.9818 27.4413C20.5799 30.2509 20.6494 33.6466 21.1902 37.6315C21.1902 37.6375 21.1932 37.6436 21.1932 37.6466L21.5648 39.5046L20.3775 39.5136H19.6313L19.9365 37.9819C19.9365 37.9759 19.9395 37.9698 19.9395 37.9668C20.3926 34.6315 20.45 31.7887 20.1147 29.4352C19.7733 27.0576 19.0331 25.1724 17.8942 23.7797C17.8187 23.6891 17.6888 23.6558 17.577 23.7102C17.4471 23.7737 17.3897 23.9308 17.4531 24.0607C18.5679 26.3809 18.7733 28.7917 18.5105 31.2237C18.3141 33.0454 17.8519 34.8792 17.3081 36.6949L17.3474 35.6466C17.3474 35.6375 17.3474 35.6255 17.3474 35.6164C17.2144 32.9246 16.7915 30.263 16.0634 27.6679C16.0362 27.541 15.9184 27.4534 15.7855 27.4624C15.6404 27.4745 15.5317 27.6014 15.5438 27.7464C15.7099 29.7736 15.7462 31.7584 15.6646 33.7161C15.5861 35.4593 15.4139 37.1904 15.151 38.9094V39.5015C13.6465 39.5015 13.8731 39.4502 13 41H29.0239H29.0904H29.3804H29.6705H29.9605H30.2535H30.5768H30.8729H31.1689H31.4348H50.1233ZM27.4318 18.4112C27.601 18.7314 28.0753 18.5441 27.9907 18.1967C27.9847 18.1756 27.9786 18.1574 27.9696 18.1393C27.7702 17.7496 27.5043 17.4052 27.1841 17.1061C26.9575 16.8795 26.5648 17.1454 26.7037 17.4505C26.7219 17.4898 26.74 17.5109 26.7702 17.5442C27.0391 17.7919 27.2657 18.0819 27.4318 18.4112ZM21.308 15.4989C20.9787 15.517 20.9153 16.0245 21.2899 16.097C21.3141 16.1001 21.3322 16.1001 21.3594 16.1001C21.7431 16.0668 22.1388 16.0547 22.5225 16.0699C22.6524 16.0789 22.7703 15.9913 22.8156 15.8705C22.882 15.6741 22.7521 15.4807 22.5437 15.4687C22.1479 15.4445 21.7068 15.4626 21.308 15.4989ZM24.3865 15.7073C24.0149 15.6197 23.8548 16.1756 24.2415 16.2904C24.5859 16.375 25.021 16.4958 25.3412 16.6439C25.6524 16.7798 25.9333 16.3538 25.6312 16.1212C25.6131 16.1091 25.598 16.1001 25.5769 16.091C25.2566 15.9551 24.7249 15.7647 24.3865 15.7073ZM30.5103 13.0578C30.5617 13.1454 30.6432 13.1907 30.7278 13.1968H30.7309C30.8034 13.2058 30.8819 13.1877 30.9484 13.1364C30.9937 13.1031 31.033 13.0548 31.0511 12.9974C31.2112 12.6681 31.4166 12.3841 31.6644 12.1152C31.9302 11.801 31.4831 11.4264 31.2203 11.7104C31.0511 11.8947 30.9 12.082 30.7641 12.2874C30.6221 12.076 30.459 11.8735 30.3079 11.7104C30.0481 11.4264 29.601 11.801 29.8638 12.1152C30.1146 12.3871 30.323 12.6741 30.4831 13.0065C30.4922 13.0276 30.4982 13.0427 30.5103 13.0578ZM18.8066 9.95816C18.4773 10.1545 18.7431 10.65 19.0875 10.4899C19.4289 10.3086 19.7008 10.1727 20.0694 10.0397C20.4349 9.90378 20.2597 9.37509 19.8972 9.46572C19.5437 9.57146 19.1268 9.77387 18.8066 9.95816ZM21.6947 9.06694C21.5104 9.08808 21.3896 9.26029 21.4349 9.44155C21.4712 9.58354 21.6132 9.68324 21.7582 9.66511C22.0905 9.62886 22.598 9.58052 22.9213 9.60469C23.2959 9.60469 23.3382 9.05183 22.9485 9.00349C22.5618 8.98839 22.0845 9.02464 21.6947 9.06694ZM24.7672 9.15153C24.6343 9.12736 24.4923 9.20591 24.4439 9.33279C24.3714 9.51708 24.4802 9.71043 24.6735 9.74668C25.0602 9.80711 25.4439 9.88565 25.8216 9.98233C26.1358 10.0548 26.3352 9.66511 26.0814 9.45364C26.0481 9.42947 26.0089 9.40832 25.9696 9.39926C25.5738 9.29654 25.172 9.21497 24.7672 9.15153ZM27.7218 9.98837C27.6554 9.95816 27.5768 9.95514 27.5104 9.97931C27.2475 10.0669 27.2324 10.4295 27.4832 10.5412C27.8397 10.6953 28.1871 10.8675 28.5194 11.0669C28.8366 11.2572 29.1569 10.801 28.8548 10.5684C28.5375 10.3539 28.0753 10.1394 27.7218 9.98837ZM30.0874 18.5955C30.1176 18.7103 30.2082 18.7798 30.3079 18.804L30.317 18.807C30.3925 18.8221 30.4741 18.81 30.5435 18.7677L30.5466 18.7647C30.5979 18.7314 30.6402 18.6801 30.6644 18.6076L30.6674 18.5985C30.6735 18.5774 30.6765 18.5592 30.6795 18.5381C30.7097 18.1574 30.7762 17.7889 30.888 17.4233C30.9907 17.1 30.5284 16.8614 30.3321 17.2028V17.2058C30.1659 16.9037 29.6735 17.091 29.7883 17.4505C29.9182 17.7979 30.0179 18.2028 30.0874 18.5653V18.5683L30.0904 18.5804V18.5834L30.0874 18.5955ZM20.1691 12.3599C19.7884 12.4778 19.9395 13.0306 20.3262 12.94C20.7038 12.8373 21.0754 12.7557 21.4651 12.7013C21.5407 12.6923 21.6222 12.6439 21.6675 12.5775C21.8186 12.3599 21.6464 12.0729 21.3805 12.1062C20.9667 12.1636 20.5709 12.2482 20.1691 12.3599ZM23.2385 12.0306C22.8881 12.0095 22.7854 12.511 23.1388 12.6198C23.16 12.6258 23.1781 12.6288 23.1992 12.6288C23.5829 12.653 23.9696 12.7043 24.3473 12.7829C24.743 12.8524 24.8548 12.2844 24.4711 12.1938C24.0663 12.1122 23.6524 12.0548 23.2385 12.0306ZM26.2445 12.7738C25.8729 12.6107 25.6403 13.1545 25.9907 13.3176C26.3412 13.4777 26.6796 13.662 26.9998 13.8765C27.317 14.082 27.6463 13.6379 27.3563 13.3932C27.0481 13.1666 26.598 12.9339 26.2445 12.7738ZM28.7611 14.5895C28.4983 14.3055 28.0542 14.6801 28.317 14.9943C28.5768 15.2753 28.8155 15.5835 29.0239 15.9037C29.2203 16.2088 29.7097 15.9611 29.5436 15.6046C29.3502 15.2753 29.0209 14.8705 28.7611 14.5895ZM33.5616 18.1393C33.5284 18.1997 33.5193 18.2783 33.5375 18.3447C33.61 18.6166 33.9634 18.6589 34.0964 18.4112C34.2656 18.0789 34.4891 17.7979 34.758 17.5411C35.0389 17.2602 34.6462 16.8493 34.3562 17.097C34.039 17.384 33.758 17.7556 33.5616 18.1393ZM40.1718 16.097C40.5585 16.1212 40.6189 15.5684 40.2443 15.5019C39.8667 15.4566 39.3652 15.4475 38.9875 15.4687C38.625 15.4898 38.5978 16.0004 38.9483 16.0638C38.9694 16.0668 38.9875 16.0699 39.0117 16.0668C39.3893 16.0487 39.7881 16.0638 40.1718 16.097ZM37.2806 16.2904C37.4377 16.2541 37.5344 16.1031 37.5072 15.943C37.477 15.7738 37.3108 15.665 37.1416 15.7043C36.8033 15.7617 36.2716 15.952 35.9513 16.088C35.6039 16.239 35.7972 16.7647 36.1628 16.6499C36.4981 16.526 36.9302 16.3508 37.2806 16.2904ZM42.4225 10.4778C42.5404 10.5473 42.7005 10.5261 42.7941 10.4234C42.924 10.2814 42.8908 10.0609 42.7246 9.95816C42.3802 9.76179 42.0328 9.60469 41.6582 9.47176C41.3319 9.35092 41.0721 9.8343 41.4316 10.0276C41.7941 10.1727 42.0781 10.2814 42.4225 10.4778ZM39.77 9.66511C40.1295 9.70741 40.2504 9.16361 39.8576 9.06996C39.483 9.01558 38.9815 8.99443 38.6008 9.00349C38.2353 9.00349 38.19 9.55635 38.5736 9.60167C38.9875 9.6198 39.3561 9.6198 39.77 9.66511ZM36.8577 9.74366C37.2353 9.6772 37.1688 9.12434 36.7882 9.14851C36.3984 9.19382 35.9423 9.29956 35.5586 9.39624C35.2293 9.47478 35.2716 9.98837 35.6371 9.98837C35.6643 9.98535 35.6824 9.98535 35.7066 9.97931C36.0873 9.88263 36.471 9.80408 36.8577 9.74366ZM34.048 10.5382C34.3894 10.3872 34.2051 9.86149 33.8305 9.97931C33.4619 10.1243 33.045 10.3449 32.7036 10.5473C32.3804 10.7406 32.6372 11.2391 32.9876 11.076C33.3502 10.8796 33.6643 10.7044 34.048 10.5382ZM40.489 12.7829C40.8516 12.8463 40.9935 12.3146 40.625 12.1998C40.2413 12.1122 39.7609 12.0699 39.3682 12.0457C38.9875 12.0246 38.9271 12.5956 39.3168 12.6439C39.7217 12.6772 40.0872 12.7134 40.489 12.7829ZM37.5857 12.6983C37.9422 12.656 37.9392 12.1243 37.5616 12.1001C37.5434 12.1001 37.5314 12.1001 37.5132 12.1031C37.1024 12.1515 36.6975 12.221 36.2957 12.3146C35.9543 12.3962 36.0087 12.9068 36.3682 12.9068C36.3924 12.9037 36.4105 12.9037 36.4347 12.8977C36.7912 12.804 37.2232 12.7406 37.5857 12.6983ZM34.7791 13.4415C34.9 13.3901 34.9725 13.2602 34.9574 13.1303C34.9332 12.9309 34.7217 12.8101 34.5374 12.8917C34.1538 13.0578 33.7943 13.2421 33.4347 13.4566C33.3683 13.4959 33.332 13.5472 33.3079 13.6137C33.2172 13.8826 33.5073 14.1152 33.7459 13.9702C34.0782 13.7708 34.4226 13.5956 34.7791 13.4415ZM32.3743 15.0215C32.6402 14.7557 32.2746 14.3448 31.9786 14.5714C31.7006 14.8161 31.3472 15.2451 31.1387 15.5532C30.9393 15.8312 31.3139 16.1967 31.5979 15.9369C31.613 15.9218 31.6221 15.9097 31.6342 15.8916C31.8577 15.5744 32.0994 15.2934 32.3743 15.0215Z" fill="white"/>
</svg>
